<?xml version="1.0" encoding="UTF-8"?>
<!DOCTYPE svg PUBLIC "-//W3C//DTD SVG 1.1//EN" "http://www.w3.org/Graphics/SVG/1.1/DTD/svg11.dtd">
<!-- Creator: CorelDRAW 2020 (64-Bit) -->
<svg xmlns="http://www.w3.org/2000/svg" xml:space="preserve" width="10.0468in" height="3.37479in" version="1.1" style="shape-rendering:geometricPrecision; text-rendering:geometricPrecision; image-rendering:optimizeQuality; fill-rule:evenodd; clip-rule:evenodd"
viewBox="0 0 1418.86 476.6"
 xmlns:xlink="http://www.w3.org/1999/xlink"
 xmlns:xodm="http://www.corel.com/coreldraw/odm/2003">
 <defs>
  <style type="text/css">
   <![CDATA[
    .fil0 {fill:#7ED6D2}
   ]]>
  </style>
 </defs>
 <g id="Layer_x0020_1">
  <metadata id="CorelCorpID_0Corel-Layer"/>
  <path class="fil0" d="M252.73 118.48c-8.16,5.91 -19.54,4.08 -25.47,-4.06 -5.96,-8.18 -4.16,-19.65 4.03,-25.61 19.34,-14.57 45.99,-20.4 69.76,-16.66 23.79,3.74 47.33,17.45 61.27,37.26 5.96,8.18 4.16,19.65 -4.03,25.61 -8.14,5.93 -19.54,4.18 -25.48,-3.95 -8.96,-12.26 -22.43,-20.44 -37.44,-22.8 -15.01,-2.36 -30.34,1.3 -42.64,10.21zm-41.66 -58.08c-8.04,6.34 -19.42,4.51 -25.35,-3.63 -5.96,-8.18 -4.16,-19.65 4.03,-25.61 34.23,-25.54 80.36,-35.81 122.34,-29.21 41.61,6.54 83.03,30.58 107.42,65.26 5.96,8.18 4.16,19.65 -4.02,25.61 -8.14,5.93 -19.54,4.18 -25.13,-4.17 -19.84,-27.73 -50.1,-46.11 -83.82,-51.41 -33.61,-5.28 -67.95,2.86 -95.47,23.16zm477.99 99.41c-2.83,-2.01 6.84,-111.35 -90.32,-101.93 -81.66,7.92 -171.93,249.92 -209.5,248.73 -32.28,-1.02 -40.75,-148.28 -87.74,-166.45 -86.78,-33.55 -137.11,169.86 -175.11,169.15 -66.98,-1.25 3.15,-192.24 -126.38,-155.2 107.4,29.6 52.91,212.47 129.99,210.91 64.45,-1.3 95.16,-194.81 160.23,-172.66 37.9,12.9 28,191.14 89.18,195.16 86.99,5.72 158.51,-278.91 243.84,-282.21 54,-2.09 61.83,51.75 65.81,54.49zm-179.69 165.27c0.81,-0.81 1.63,-1.8 2.5,-3.14 0.81,-1.28 1.8,-2.73 2.96,-4.3l13.12 -8.94c1.63,-1.92 4.06,-4.35 7.37,-7.31 3.31,-2.96 7.37,-6.62 12.25,-10.86 0.58,-1.28 1.51,-2.73 2.84,-4.35 1.28,-1.63 2.85,-3.25 4.64,-4.88 1.57,-1.45 3.19,-2.84 4.76,-4.12 1.57,-1.33 3.08,-2.61 4.41,-3.83 1.68,-1.74 3.31,-3.43 4.82,-5.11 1.57,-1.68 3.08,-3.37 4.7,-4.93 1.8,-1.57 3.66,-2.84 5.57,-3.77 1.92,-0.87 4.06,-1.34 6.33,-1.34 2.5,0 4.35,0.29 5.69,0.93 1.28,0.64 1.97,1.51 2.09,2.61 -1.1,2.61 -2.32,5.22 -3.54,7.84l0.99 1.57c4.99,-1.97 8.88,-3.37 11.73,-4.3 2.85,-0.87 4.64,-1.33 5.46,-1.33 8.24,0 14.46,2.5 18.58,7.55 4.12,5.05 6.21,12.71 6.21,22.87 0,1.97 -0.23,4.24 -0.7,6.85 -0.46,2.55 -1.16,5.4 -2.21,8.48 -1.1,3.42 -2.32,6.21 -3.66,8.48 -1.28,2.32 -2.5,3.95 -3.66,4.94 0.46,1.28 0.99,2.26 1.57,2.9 0.52,0.58 1.28,0.93 2.21,0.93 0.87,0 1.8,-0.29 2.79,-0.87 0.99,-0.58 2.15,-1.39 3.48,-2.55 1.16,2.5 2.26,5.11 3.31,7.78 1.1,2.67 2.21,5.28 3.31,7.9 -2.03,1.8 -4.01,3.6 -5.92,5.34 -1.97,1.68 -4.01,3.37 -6.15,4.94 -2.61,2.21 -5.05,3.77 -7.37,4.7 -2.32,0.99 -4.59,1.45 -6.85,1.45 -2.61,0 -4.76,-0.58 -6.5,-1.86 -1.68,-1.28 -3.02,-3.02 -4.06,-5.34 -2.84,3.77 -6.27,7.26 -10.28,10.39 -4.01,3.13 -8.48,5.75 -13.29,7.78 -2.84,1.39 -5.46,2.44 -7.78,3.19 -2.32,0.76 -4.41,1.1 -6.33,1.1 -0.58,0 -1.68,0.23 -3.31,0.7 -1.68,0.46 -3.02,0.7 -4.01,0.7 -6.44,0 -12.31,-2.73 -17.48,-8.24 -5.22,-5.46 -7.84,-11.61 -7.84,-18.35 0,-2.73 0.64,-6.33 1.86,-10.86 1.28,-4.47 1.92,-7.08 1.92,-7.9 0,-0.81 -0.29,-1.45 -0.81,-1.97 -0.46,-0.46 -1.22,-0.75 -2.09,-0.75 -0.58,0 -1.92,0.87 -4.12,2.55 -2.15,1.68 -5.17,4.12 -9.11,7.31 -0.35,0.46 -0.76,1.16 -1.22,2.03 -0.46,0.93 -1.16,1.92 -2.21,3.08 -0.93,-2.61 -1.97,-5.23 -3.13,-7.9 -1.16,-2.67 -2.44,-5.28 -3.83,-7.78zm81.86 -30.83c-0.58,0.12 -1.39,0.7 -2.44,1.8 -1.1,1.04 -2.15,2.38 -3.13,4.01 -1.63,2.55 -3.43,5.4 -5.46,8.48 -1.28,1.39 -2.55,2.44 -4.01,3.13 -1.39,0.76 -3.02,1.28 -4.82,1.63 -1.16,0.12 -2.32,1.22 -3.6,3.31 -1.22,2.09 -2.44,5.17 -3.72,9.11 -1.22,3.54 -2.15,6.5 -2.73,9 -0.58,2.5 -0.81,4.59 -0.81,6.33 0,3.13 0.75,5.52 2.38,7.14 1.57,1.57 4.01,2.38 7.26,2.38 5.22,0 9.99,-1.45 14.4,-4.35 4.35,-2.9 8.42,-7.26 12.31,-13 1.8,-2.15 3.48,-4.18 5.05,-6.15 0.93,-0.64 1.68,-1.74 2.21,-3.31 0.58,-1.51 1.16,-3.43 1.74,-5.69l3.02 -9.7c-0.99,-3.37 -1.97,-6.1 -2.84,-8.07 -0.93,-1.97 -1.86,-3.19 -2.73,-3.66 -0.58,-0.35 -1.8,-0.7 -3.77,-1.1 -1.92,-0.41 -4.7,-0.81 -8.3,-1.28zm41.1 30.83c0.46,-0.35 0.93,-0.81 1.39,-1.45 0.41,-0.58 0.93,-1.57 1.51,-2.96 0.7,-1.1 1.68,-2.32 2.9,-3.6 1.28,-1.33 2.73,-2.79 4.47,-4.35 3.19,-2.55 6.04,-5.81 8.65,-9.7 2.55,-3.89 5.11,-8.36 7.61,-13.47 3.25,-7.14 6.27,-13.24 9,-18.23 2.73,-4.99 5.22,-8.77 7.49,-11.38 0.64,-2.61 2.03,-6.73 4.06,-12.42 2.03,-5.69 4.76,-13.06 8.19,-22.12 3.25,-8.65 6.04,-15.67 8.3,-21.02 2.26,-5.4 3.95,-9.12 5.11,-11.15 0.46,-0.81 1.05,-1.86 1.8,-3.08 0.7,-1.28 1.34,-2.79 1.74,-4.59 1.63,-5.34 3.48,-10.33 5.63,-14.92 2.15,-4.59 4.35,-8.94 6.62,-13 0.58,-1.05 1.28,-1.86 2.15,-2.38 0.81,-0.58 1.74,-0.87 2.61,-0.87 4.53,0 7.9,1.74 10.1,5.28 2.21,3.48 3.31,8.65 3.31,15.5 0,7.61 -2.44,18.11 -7.26,31.58 -4.88,13.41 -12.37,29.72 -22.47,48.94 -2.03,4.3 -4.24,9.58 -6.62,15.79 -2.38,6.27 -4.76,13.41 -7.14,21.48 -1.92,6.21 -3.83,12.6 -5.63,19.04 -1.8,6.5 -3.66,12.83 -5.57,19.04 -1.86,6.04 -3.19,10.8 -4.12,14.22 -0.87,3.48 -1.33,5.75 -1.33,6.91 0,0.81 0.12,1.39 0.41,1.68 0.29,0.35 0.7,0.52 1.28,0.52 1.16,0 2.15,-0.35 2.96,-0.99 0.87,-0.7 1.51,-1.68 1.97,-2.9 2.26,-3.31 4.53,-7.03 6.73,-11.15 2.21,-4.18 4.41,-8.71 6.68,-13.7l0.52 -4.94c0.81,-7.49 2.5,-12.71 5.11,-15.67 2.61,-2.96 7.49,-5.28 14.63,-6.97 0.87,-0.35 3.19,-3.42 6.85,-9.23 3.72,-5.75 8.59,-14.34 14.75,-25.66 3.37,-6.04 6.21,-10.57 8.48,-13.53 2.26,-3.02 3.95,-4.53 5.11,-4.53 2.61,0 4.47,0.81 5.63,2.55 1.1,1.68 1.68,4.24 1.68,7.66 0,8.71 -4.88,19.74 -14.63,33.03 -9.75,13.24 -14.63,22 -14.63,26.18 0,2.96 2.61,7.49 7.84,13.53 5.23,6.1 9.52,9.12 12.89,9.12 1.16,0 2.38,-0.35 3.83,-1.1 1.39,-0.76 3.02,-1.97 4.93,-3.6 1.45,-1.16 2.9,-2.38 4.3,-3.72 1.39,-1.33 2.96,-2.55 4.64,-3.72l6.97 15.67c-2.96,2.61 -5.75,5.28 -8.42,7.9 -2.67,2.61 -5.46,5.23 -8.42,7.72 -3.25,3.19 -6.56,5.57 -9.87,7.14 -3.25,1.51 -6.56,2.32 -9.87,2.32 -3.37,0 -9.11,-3.48 -17.24,-10.51 -8.07,-6.97 -12.42,-10.45 -13,-10.45 -4.18,3.83 -7.84,7.72 -11.03,11.55 -2.03,2.5 -4.06,4.94 -6.04,7.26 -1.97,2.32 -4.01,4.76 -6.04,7.26 -0.58,0.76 -1.45,1.74 -2.73,2.85 -1.22,1.16 -2.67,2.44 -4.24,3.95 -1.57,2.26 -3.37,4.47 -5.34,6.56 -1.97,2.09 -4.47,3.13 -7.37,3.13 -4.59,0 -7.95,-1.33 -10.22,-3.95 -2.26,-2.61 -3.43,-6.62 -3.43,-11.96 0,-5.46 0.52,-11.26 1.45,-17.42 0.99,-6.15 2.5,-12.6 4.53,-19.27 0.76,-3.19 1.39,-6.04 1.86,-8.48 0.46,-2.44 0.7,-4.53 0.7,-6.33l-1.22 -1.74c-1.45,1.86 -3.31,4.01 -5.57,6.5 -2.32,2.5 -4.94,5.51 -8.01,9.17 -0.46,0.35 -0.93,0.93 -1.45,1.8 -0.52,0.81 -1.68,2.5 -3.48,4.99 -0.58,-1.45 -1.28,-3.25 -2.15,-5.28 -0.87,-2.03 -1.8,-4.41 -2.73,-7.14 -0.23,-0.7 -0.52,-1.34 -0.87,-1.92 -0.35,-0.52 -0.76,-0.99 -1.22,-1.33zm134.22 0c2.61,-2.73 6.62,-6.04 12.08,-9.87 5.4,-3.83 9.46,-7.02 12.08,-9.52 1.68,-2.03 3.89,-4.53 6.62,-7.37 2.67,-2.9 5.92,-6.33 9.64,-10.33 2.26,-2.03 4.47,-3.6 6.62,-4.76 2.15,-1.1 4.3,-1.68 6.44,-1.68 2.73,0 4.82,0.7 6.39,2.03 1.51,1.39 2.26,3.54 2.26,6.44 0,4.47 -1.68,11.61 -5.11,21.48 -3.37,9.81 -5.05,17.3 -5.05,22.41 0,1.16 0.23,1.92 0.76,2.38 0.52,0.46 1.1,0.7 1.8,0.7l0.81 -0.17c2.15,-1.39 4.7,-3.08 7.61,-5.17 2.84,-2.15 6.15,-4.7 9.75,-7.78 2.96,-2.73 6.62,-6.27 10.97,-10.68 4.35,-4.41 9.46,-9.52 15.38,-15.33 2.26,-1.8 4.82,-4.12 7.72,-6.97 2.9,-2.85 6.15,-6.21 9.81,-10.22 1.45,-2.03 3.54,-3.6 6.21,-4.76 2.61,-1.1 5.92,-1.68 9.75,-1.68 2.61,0 4.59,0.46 5.86,1.45 1.33,0.93 1.97,2.38 1.97,4.35 0,0.75 -0.12,1.51 -0.29,2.26 -0.17,0.75 -0.29,1.45 -0.41,2.15 -0.81,3.37 -1.97,7.55 -3.54,12.48 -1.63,4.93 -3.54,10.74 -5.81,17.42 -1.92,4.24 -3.95,9.23 -6.04,15.09 -2.09,5.81 -4.3,12.25 -6.68,19.27l1.16 1.51c2.38,-1.1 5.92,-3.83 10.57,-8.07 4.64,-4.24 10.57,-9.93 17.65,-17.07l6.97 15.67c-0.93,0.93 -2.03,2.03 -3.31,3.31 -1.28,1.33 -3.02,2.73 -5.17,4.18 -12.13,8.65 -22.53,17.18 -31.18,25.66 -8.65,8.48 -15.5,16.84 -20.61,25.14 -7.55,12.48 -13.88,22.7 -18.93,30.54 -4.99,7.84 -8.65,13.35 -10.91,16.49 -7.84,10.39 -15.21,18.06 -22.24,23.05 -7.02,4.99 -13.88,7.49 -20.55,7.49 -2.5,0 -4.3,-0.52 -5.46,-1.51 -1.1,-1.05 -1.68,-2.61 -1.68,-4.82 0,-1.1 0.29,-2.55 0.87,-4.24 0.52,-1.68 1.57,-3.54 3.02,-5.46 2.15,-3.08 4.12,-6.27 5.92,-9.52l5.05 -4.47c0.46,-1.45 0.7,-2.5 0.7,-3.08 0.41,-0.52 1.05,-1.22 1.92,-2.03 0.81,-0.81 1.8,-1.68 2.9,-2.73 0.81,-2.03 2.96,-5.4 6.39,-10.1 3.48,-4.76 8.3,-10.8 14.57,-18.17 4.64,-5.46 8.88,-10.33 12.71,-14.57 3.89,-4.3 7.14,-7.9 9.87,-10.86 0.46,-0.87 0.93,-1.97 1.45,-3.19 0.52,-1.28 0.93,-2.5 1.28,-3.77 1.51,-2.96 3.08,-6.56 4.88,-10.74 1.74,-4.18 3.83,-9.17 6.33,-14.8 1.16,-3.31 2.15,-7.08 2.9,-11.38 0.81,-4.24 1.57,-8.88 2.21,-13.88 -0.23,-0.46 -0.35,-1.04 -0.41,-1.8 -0.06,-0.7 -0.29,-1.8 -0.75,-3.13 -2.03,0.99 -4.3,2.55 -6.73,4.59 -2.44,2.03 -5.05,4.41 -7.9,7.14 -3.77,4.88 -7.55,8.94 -11.38,12.19 -3.89,3.19 -7.66,5.69 -11.44,7.37 -2.5,4.88 -5.69,8.48 -9.58,10.8 -3.95,2.32 -8.42,3.48 -13.53,3.48 -3.72,0 -6.56,-0.87 -8.48,-2.61 -1.97,-1.8 -2.9,-4.47 -2.9,-8.07 0,-0.7 0.06,-1.57 0.23,-2.55 0.17,-1.05 0.46,-2.21 0.76,-3.6 -0.41,-1.1 -0.99,-2.67 -1.68,-4.7 0.46,-1.97 0.87,-4.12 1.22,-6.5 0,-3.37 -0.29,-5.92 -0.81,-7.61 -0.46,-1.74 -1.28,-2.55 -2.44,-2.55l-0.7 0.29c-1.22,0.93 -2.96,2.32 -5.28,4.12 -2.26,1.8 -4.93,4.01 -8.13,6.62 -0.58,-1.45 -1.28,-3.25 -2.15,-5.28 -0.87,-2.03 -1.8,-4.41 -2.73,-7.14 -0.23,-0.7 -0.52,-1.34 -0.87,-1.92 -0.35,-0.52 -0.76,-0.99 -1.22,-1.33zm146.94 0l0.7 -1.34c0.7,-0.93 1.57,-2.03 2.67,-3.43 1.05,-1.33 2.32,-2.9 3.83,-4.7 8.07,-7.49 15.91,-16.37 23.57,-26.71 7.66,-10.28 15.21,-22.18 22.7,-35.59 0.93,-1.28 1.97,-2.9 3.08,-4.93 1.16,-2.03 2.38,-4.59 3.77,-7.61 0,-0.7 -0.17,-1.22 -0.52,-1.51 -0.35,-0.35 -0.93,-0.52 -1.74,-0.52 -0.64,0 -1.74,0.17 -3.31,0.58 -1.51,0.41 -2.67,0.58 -3.48,0.58l-21.25 0c-0.93,0 -2.38,-0.06 -4.53,-0.17 -2.09,-0.12 -3.6,-0.17 -4.47,-0.17 -1.16,-0.52 -2.21,-1.05 -3.14,-1.45 -0.99,-0.35 -1.92,-0.81 -2.84,-1.28 -1.34,-0.41 -2.38,-1.04 -3.14,-1.74 -0.75,-0.76 -1.1,-1.63 -1.1,-2.67 0,-7.26 0.76,-12.77 2.32,-16.66 1.51,-3.83 3.83,-5.75 7.02,-5.75 3.19,0 6.15,0.12 8.94,0.41 2.79,0.29 5.23,0.64 7.43,1.1 1.68,-0.35 3.25,-0.7 4.76,-1.05 3.02,0 5.63,0.12 7.78,0.35 2.21,0.23 3.83,0.52 4.93,0.87 1.51,-0.35 2.96,-0.64 4.35,-0.93 1.45,-0.29 2.96,-0.58 4.7,-0.93l5.57 1.68c4.01,-0.46 8.19,-6.04 12.66,-16.72 4.47,-10.68 9.23,-16.02 14.34,-16.02 2.73,0 4.82,0.87 6.27,2.55 1.51,1.68 2.26,4.18 2.26,7.49 0,2.61 -0.81,6.04 -2.32,10.28 -1.51,4.3 -2.38,7.49 -2.61,9.64 0.23,0.46 0.52,0.93 0.93,1.45 0.41,0.52 0.99,1.1 1.8,1.8 0.7,0.46 1.16,1.22 1.45,2.26 0.29,1.1 0.41,2.44 0.41,4.01 0,6.85 -0.29,12.08 -0.93,15.79 -0.64,3.66 -1.63,5.57 -2.96,5.69l-11.55 2.38c-0.23,1.16 -0.52,2.55 -0.81,4.18 -0.35,1.63 -0.81,3.54 -1.39,5.63 -1.92,5.69 -4.06,12.83 -6.44,21.54 -2.32,8.65 -4.99,18.93 -7.95,30.77 -1.8,9.52 -3.19,17.18 -4.12,23.05 -0.99,5.92 -1.45,9.87 -1.45,11.9 0,1.8 0.29,3.19 0.87,4.06 0.52,0.93 1.39,1.39 2.55,1.39 0.64,0 3.13,-1.63 7.37,-4.94 4.24,-3.31 10.16,-8.19 17.76,-14.63l6.62 15.67c-1.1,1.28 -2.73,2.73 -4.76,4.47 -2.03,1.68 -4.47,3.54 -7.31,5.46 -1.1,1.28 -2.55,2.67 -4.24,4.18 -1.68,1.57 -3.6,3.37 -5.63,5.4 -2.03,2.32 -4.06,4.59 -6.04,6.85 -1.97,2.32 -4.01,4.53 -6.04,6.68 -2.73,3.02 -5.34,5.11 -7.95,6.44 -2.61,1.33 -5.05,1.97 -7.32,1.97 -4.99,0 -8.71,-1.51 -11.15,-4.47 -2.44,-2.96 -3.66,-7.49 -3.66,-13.53 0,-6.62 0.23,-12.37 0.7,-17.18 0.41,-4.88 1.16,-8.77 2.21,-11.73 0.41,-0.87 0.75,-1.68 0.99,-2.38 0,-1.1 0.17,-2.67 0.52,-4.59 0.35,-1.92 0.75,-4.18 1.16,-6.79 0.7,-4.41 1.45,-8.82 2.21,-13.29 1.28,-2.67 2.55,-5.57 3.95,-8.65 0,-0.58 -0.46,-1.05 -1.39,-1.51l-1.68 0.99c-1.68,2.73 -3.89,5.57 -6.62,8.59 -2.73,3.02 -5.98,6.15 -9.7,9.46 -5.81,5.57 -11.67,11.15 -17.71,16.84 -0.35,0.58 -0.99,1.39 -1.86,2.55 -0.93,1.1 -1.92,2.55 -3.08,4.24 -0.58,-1.39 -1.28,-3.08 -2.15,-5.23 -0.87,-2.09 -1.8,-4.47 -2.73,-7.2 -0.23,-0.7 -0.52,-1.34 -0.87,-1.92 -0.35,-0.52 -0.76,-0.99 -1.22,-1.33zm94.22 0c0.81,-0.81 1.63,-1.8 2.5,-3.14 0.81,-1.28 1.8,-2.73 2.96,-4.3l13.12 -8.94c1.63,-1.92 4.06,-4.35 7.37,-7.31 3.31,-2.96 7.37,-6.62 12.25,-10.86 0.58,-1.28 1.51,-2.73 2.84,-4.35 1.28,-1.63 2.85,-3.25 4.64,-4.88 1.57,-1.45 3.19,-2.84 4.76,-4.12 1.57,-1.33 3.08,-2.61 4.41,-3.83 1.68,-1.74 3.31,-3.43 4.82,-5.11 1.57,-1.68 3.08,-3.37 4.7,-4.93 1.8,-1.57 3.66,-2.84 5.57,-3.77 1.92,-0.87 4.06,-1.34 6.33,-1.34 2.5,0 4.35,0.29 5.69,0.93 1.28,0.64 1.97,1.51 2.09,2.61 -1.1,2.61 -2.32,5.22 -3.54,7.84l0.99 1.57c4.99,-1.97 8.88,-3.37 11.73,-4.3 2.85,-0.87 4.64,-1.33 5.46,-1.33 8.24,0 14.46,2.5 18.58,7.55 4.12,5.05 6.21,12.71 6.21,22.87 0,1.97 -0.23,4.24 -0.7,6.85 -0.46,2.55 -1.16,5.4 -2.21,8.48 -1.1,3.42 -2.32,6.21 -3.66,8.48 -1.28,2.32 -2.5,3.95 -3.66,4.94 0.46,1.28 0.99,2.26 1.57,2.9 0.52,0.58 1.28,0.93 2.21,0.93 0.87,0 1.8,-0.29 2.79,-0.87 0.99,-0.58 2.15,-1.39 3.48,-2.55 1.16,2.5 2.26,5.11 3.31,7.78 1.1,2.67 2.21,5.28 3.31,7.9 -2.03,1.8 -4.01,3.6 -5.92,5.34 -1.97,1.68 -4.01,3.37 -6.15,4.94 -2.61,2.21 -5.05,3.77 -7.37,4.7 -2.32,0.99 -4.59,1.45 -6.85,1.45 -2.61,0 -4.76,-0.58 -6.5,-1.86 -1.68,-1.28 -3.02,-3.02 -4.06,-5.34 -2.84,3.77 -6.27,7.26 -10.28,10.39 -4.01,3.13 -8.48,5.75 -13.29,7.78 -2.84,1.39 -5.46,2.44 -7.78,3.19 -2.32,0.76 -4.41,1.1 -6.33,1.1 -0.58,0 -1.68,0.23 -3.31,0.7 -1.68,0.46 -3.02,0.7 -4.01,0.7 -6.44,0 -12.31,-2.73 -17.48,-8.24 -5.22,-5.46 -7.84,-11.61 -7.84,-18.35 0,-2.73 0.64,-6.33 1.86,-10.86 1.28,-4.47 1.92,-7.08 1.92,-7.9 0,-0.81 -0.29,-1.45 -0.81,-1.97 -0.46,-0.46 -1.22,-0.75 -2.09,-0.75 -0.58,0 -1.92,0.87 -4.12,2.55 -2.15,1.68 -5.17,4.12 -9.11,7.31 -0.35,0.46 -0.76,1.16 -1.22,2.03 -0.46,0.93 -1.16,1.92 -2.21,3.08 -0.93,-2.61 -1.97,-5.23 -3.13,-7.9 -1.16,-2.67 -2.44,-5.28 -3.83,-7.78zm81.86 -30.83c-0.58,0.12 -1.39,0.7 -2.44,1.8 -1.1,1.04 -2.15,2.38 -3.13,4.01 -1.63,2.55 -3.43,5.4 -5.46,8.48 -1.28,1.39 -2.55,2.44 -4.01,3.13 -1.39,0.76 -3.02,1.28 -4.82,1.63 -1.16,0.12 -2.32,1.22 -3.6,3.31 -1.22,2.09 -2.44,5.17 -3.72,9.11 -1.22,3.54 -2.15,6.5 -2.73,9 -0.58,2.5 -0.81,4.59 -0.81,6.33 0,3.13 0.75,5.52 2.38,7.14 1.57,1.57 4.01,2.38 7.26,2.38 5.22,0 9.99,-1.45 14.4,-4.35 4.35,-2.9 8.42,-7.26 12.31,-13 1.8,-2.15 3.48,-4.18 5.05,-6.15 0.93,-0.64 1.68,-1.74 2.21,-3.31 0.58,-1.51 1.16,-3.43 1.74,-5.69l3.02 -9.7c-0.99,-3.37 -1.97,-6.1 -2.84,-8.07 -0.93,-1.97 -1.86,-3.19 -2.73,-3.66 -0.58,-0.35 -1.8,-0.7 -3.77,-1.1 -1.92,-0.41 -4.7,-0.81 -8.3,-1.28zm41.1 30.83c0.46,-0.35 0.93,-0.81 1.39,-1.45 0.41,-0.58 0.93,-1.57 1.51,-2.96 0.7,-1.1 1.68,-2.32 2.9,-3.6 1.28,-1.33 2.73,-2.79 4.47,-4.35 3.19,-2.55 6.04,-5.81 8.65,-9.7 2.55,-3.89 5.11,-8.36 7.61,-13.47 3.25,-7.14 6.27,-13.24 9,-18.23 2.73,-4.99 5.22,-8.77 7.49,-11.38 0.64,-2.61 2.03,-6.73 4.06,-12.42 2.03,-5.69 4.76,-13.06 8.19,-22.12 3.25,-8.65 6.04,-15.67 8.3,-21.02 2.26,-5.4 3.95,-9.12 5.11,-11.15 0.46,-0.81 1.05,-1.86 1.8,-3.08 0.7,-1.28 1.34,-2.79 1.74,-4.59 1.63,-5.34 3.48,-10.33 5.63,-14.92 2.15,-4.59 4.35,-8.94 6.62,-13 0.58,-1.05 1.28,-1.86 2.15,-2.38 0.81,-0.58 1.74,-0.87 2.61,-0.87 4.53,0 7.9,1.74 10.1,5.28 2.21,3.48 3.31,8.65 3.31,15.5 0,7.61 -2.44,18.11 -7.26,31.58 -4.88,13.41 -12.37,29.72 -22.47,48.94 -2.03,4.3 -4.24,9.58 -6.62,15.79 -2.38,6.27 -4.76,13.41 -7.14,21.48 -1.92,6.21 -3.83,12.6 -5.63,19.04 -1.8,6.5 -3.66,12.83 -5.57,19.04 -1.86,6.04 -3.19,10.8 -4.12,14.22 -0.87,3.48 -1.33,5.75 -1.33,6.91 0,0.81 0.12,1.39 0.41,1.68 0.29,0.35 0.7,0.52 1.28,0.52 1.16,0 2.15,-0.35 2.96,-0.99 0.87,-0.7 1.51,-1.68 1.97,-2.9 2.26,-3.31 4.53,-7.03 6.73,-11.15 2.21,-4.18 4.41,-8.71 6.68,-13.7l0.52 -4.94c0.81,-7.49 2.5,-12.71 5.11,-15.67 2.61,-2.96 7.49,-5.28 14.63,-6.97 0.87,-0.35 3.19,-3.42 6.85,-9.23 3.72,-5.75 8.59,-14.34 14.75,-25.66 3.37,-6.04 6.21,-10.57 8.48,-13.53 2.26,-3.02 3.95,-4.53 5.11,-4.53 2.61,0 4.47,0.81 5.63,2.55 1.1,1.68 1.68,4.24 1.68,7.66 0,8.71 -4.88,19.74 -14.63,33.03 -9.75,13.24 -14.63,22 -14.63,26.18 0,2.96 2.61,7.49 7.84,13.53 5.23,6.1 9.52,9.12 12.89,9.12 1.16,0 2.38,-0.35 3.83,-1.1 1.39,-0.76 3.02,-1.97 4.93,-3.6 1.45,-1.16 2.9,-2.38 4.3,-3.72 1.39,-1.33 2.96,-2.55 4.64,-3.72l6.97 15.67c-2.96,2.61 -5.75,5.28 -8.42,7.9 -2.67,2.61 -5.46,5.23 -8.42,7.72 -3.25,3.19 -6.56,5.57 -9.87,7.14 -3.25,1.51 -6.56,2.32 -9.87,2.32 -3.37,0 -9.11,-3.48 -17.24,-10.51 -8.07,-6.97 -12.42,-10.45 -13,-10.45 -4.18,3.83 -7.84,7.72 -11.03,11.55 -2.03,2.5 -4.06,4.94 -6.04,7.26 -1.97,2.32 -4.01,4.76 -6.04,7.26 -0.58,0.76 -1.45,1.74 -2.73,2.85 -1.22,1.16 -2.67,2.44 -4.24,3.95 -1.57,2.26 -3.37,4.47 -5.34,6.56 -1.97,2.09 -4.47,3.13 -7.37,3.13 -4.59,0 -7.95,-1.33 -10.22,-3.95 -2.26,-2.61 -3.43,-6.62 -3.43,-11.96 0,-5.46 0.52,-11.26 1.45,-17.42 0.99,-6.15 2.5,-12.6 4.53,-19.27 0.76,-3.19 1.39,-6.04 1.86,-8.48 0.46,-2.44 0.7,-4.53 0.7,-6.33l-1.22 -1.74c-1.45,1.86 -3.31,4.01 -5.57,6.5 -2.32,2.5 -4.94,5.51 -8.01,9.17 -0.46,0.35 -0.93,0.93 -1.45,1.8 -0.52,0.81 -1.68,2.5 -3.48,4.99 -0.58,-1.45 -1.28,-3.25 -2.15,-5.28 -0.87,-2.03 -1.8,-4.41 -2.73,-7.14 -0.23,-0.7 -0.52,-1.34 -0.87,-1.92 -0.35,-0.52 -0.76,-0.99 -1.22,-1.33zm134.22 0c2.61,-2.73 6.62,-6.04 12.08,-9.87 5.4,-3.83 9.46,-7.02 12.08,-9.52 1.68,-2.03 3.89,-4.53 6.62,-7.37 2.67,-2.9 5.92,-6.33 9.64,-10.33 2.26,-2.03 4.47,-3.6 6.62,-4.76 2.15,-1.1 4.3,-1.68 6.44,-1.68 2.73,0 4.82,0.7 6.39,2.03 1.51,1.39 2.26,3.54 2.26,6.44 0,4.47 -1.68,11.61 -5.11,21.48 -3.37,9.81 -5.05,17.3 -5.05,22.41 0,1.16 0.23,1.92 0.76,2.38 0.52,0.46 1.1,0.7 1.8,0.7l0.81 -0.17c2.15,-1.39 4.7,-3.08 7.61,-5.17 2.84,-2.15 6.15,-4.7 9.75,-7.78 2.96,-2.73 6.62,-6.27 10.97,-10.68 4.35,-4.41 9.46,-9.52 15.38,-15.33 2.26,-1.8 4.82,-4.12 7.72,-6.97 2.9,-2.85 6.15,-6.21 9.81,-10.22 1.45,-2.03 3.54,-3.6 6.21,-4.76 2.61,-1.1 5.92,-1.68 9.75,-1.68 2.61,0 4.59,0.46 5.86,1.45 1.33,0.93 1.97,2.38 1.97,4.35 0,0.75 -0.12,1.51 -0.29,2.26 -0.17,0.75 -0.29,1.45 -0.41,2.15 -0.81,3.37 -1.97,7.55 -3.54,12.48 -1.63,4.93 -3.54,10.74 -5.81,17.42 -1.92,4.24 -3.95,9.23 -6.04,15.09 -2.09,5.81 -4.3,12.25 -6.68,19.27l1.16 1.51c2.38,-1.1 5.92,-3.83 10.57,-8.07 4.64,-4.24 10.57,-9.93 17.65,-17.07l6.97 15.67c-0.93,0.93 -2.03,2.03 -3.31,3.31 -1.28,1.33 -3.02,2.73 -5.17,4.18 -12.13,8.65 -22.53,17.18 -31.18,25.66 -8.65,8.48 -15.5,16.84 -20.61,25.14 -7.55,12.48 -13.88,22.7 -18.93,30.54 -4.99,7.84 -8.65,13.35 -10.91,16.49 -7.84,10.39 -15.21,18.06 -22.24,23.05 -7.02,4.99 -13.88,7.49 -20.55,7.49 -2.5,0 -4.3,-0.52 -5.46,-1.51 -1.1,-1.05 -1.68,-2.61 -1.68,-4.82 0,-1.1 0.29,-2.55 0.87,-4.24 0.52,-1.68 1.57,-3.54 3.02,-5.46 2.15,-3.08 4.12,-6.27 5.92,-9.52l5.05 -4.47c0.46,-1.45 0.7,-2.5 0.7,-3.08 0.41,-0.52 1.05,-1.22 1.92,-2.03 0.81,-0.81 1.8,-1.68 2.9,-2.73 0.81,-2.03 2.96,-5.4 6.39,-10.1 3.48,-4.76 8.3,-10.8 14.57,-18.17 4.64,-5.46 8.88,-10.33 12.71,-14.57 3.89,-4.3 7.14,-7.9 9.87,-10.86 0.46,-0.87 0.93,-1.97 1.45,-3.19 0.52,-1.28 0.93,-2.5 1.28,-3.77 1.51,-2.96 3.08,-6.56 4.88,-10.74 1.74,-4.18 3.83,-9.17 6.33,-14.8 1.16,-3.31 2.15,-7.08 2.9,-11.38 0.81,-4.24 1.57,-8.88 2.21,-13.88 -0.23,-0.46 -0.35,-1.04 -0.41,-1.8 -0.06,-0.7 -0.29,-1.8 -0.75,-3.13 -2.03,0.99 -4.3,2.55 -6.73,4.59 -2.44,2.03 -5.05,4.41 -7.9,7.14 -3.77,4.88 -7.55,8.94 -11.38,12.19 -3.89,3.19 -7.66,5.69 -11.44,7.37 -2.5,4.88 -5.69,8.48 -9.58,10.8 -3.95,2.32 -8.42,3.48 -13.53,3.48 -3.72,0 -6.56,-0.87 -8.48,-2.61 -1.97,-1.8 -2.9,-4.47 -2.9,-8.07 0,-0.7 0.06,-1.57 0.23,-2.55 0.17,-1.05 0.46,-2.21 0.76,-3.6 -0.41,-1.1 -0.99,-2.67 -1.68,-4.7 0.46,-1.97 0.87,-4.12 1.22,-6.5 0,-3.37 -0.29,-5.92 -0.81,-7.61 -0.46,-1.74 -1.28,-2.55 -2.44,-2.55l-0.7 0.29c-1.22,0.93 -2.96,2.32 -5.28,4.12 -2.26,1.8 -4.93,4.01 -8.13,6.62 -0.58,-1.45 -1.28,-3.25 -2.15,-5.28 -0.87,-2.03 -1.8,-4.41 -2.73,-7.14 -0.23,-0.7 -0.52,-1.34 -0.87,-1.92 -0.35,-0.52 -0.76,-0.99 -1.22,-1.33z"/>
 </g>
</svg>
