<?xml version="1.0" encoding="UTF-8"?>
<!DOCTYPE svg PUBLIC "-//W3C//DTD SVG 1.1//EN" "http://www.w3.org/Graphics/SVG/1.1/DTD/svg11.dtd">
<!-- Creator: CorelDRAW 2020 (64-Bit) -->
<svg xmlns="http://www.w3.org/2000/svg" xml:space="preserve" width="4.87911in" height="2.74457in" version="1.1" style="shape-rendering:geometricPrecision; text-rendering:geometricPrecision; image-rendering:optimizeQuality; fill-rule:evenodd; clip-rule:evenodd"
viewBox="0 0 641.04 360.59"
 xmlns:xlink="http://www.w3.org/1999/xlink"
 xmlns:xodm="http://www.corel.com/coreldraw/odm/2003">
 <defs>
  <style type="text/css">
   <![CDATA[
    .fil0 {fill:#7ED6D2}
   ]]>
  </style>
 </defs>
 <g id="Layer_x0020_1">
  <metadata id="CorelCorpID_0Corel-Layer"/>
  <path class="fil0" d="M235.11 110.22c-7.59,5.5 -18.18,3.79 -23.7,-3.78 -5.54,-7.61 -3.87,-18.28 3.74,-23.82 17.99,-13.56 42.79,-18.98 64.9,-15.5 22.13,3.48 44.03,16.23 57,34.67 5.54,7.61 3.87,18.28 -3.74,23.82 -7.57,5.52 -18.18,3.89 -23.71,-3.67 -8.34,-11.41 -20.87,-19.02 -34.83,-21.21 -13.96,-2.19 -28.22,1.21 -39.66,9.5zm-38.76 -54.04c-7.48,5.9 -18.07,4.2 -23.59,-3.38 -5.54,-7.61 -3.87,-18.28 3.74,-23.82 31.85,-23.76 74.76,-33.31 113.82,-27.17 38.71,6.09 77.24,28.45 99.94,60.72 5.54,7.61 3.87,18.28 -3.74,23.82 -7.57,5.52 -18.18,3.89 -23.38,-3.88 -18.46,-25.79 -46.61,-42.9 -77.98,-47.83 -31.27,-4.92 -63.22,2.66 -88.81,21.54zm444.68 92.48c-2.63,-1.87 6.37,-103.59 -84.02,-94.83 -75.97,7.36 -159.95,232.5 -194.91,231.4 -30.03,-0.95 -37.91,-137.95 -81.63,-154.85 -80.74,-31.22 -127.56,158.02 -162.91,157.36 -62.31,-1.17 2.93,-178.84 -117.57,-144.39 99.91,27.54 49.22,197.66 120.93,196.21 59.96,-1.21 88.53,-181.24 149.06,-160.63 35.26,12 26.05,177.83 82.97,181.57 80.93,5.32 147.46,-259.47 226.85,-262.54 50.24,-1.94 57.52,48.15 61.23,50.7z"/>
 </g>
</svg>
